<svg width="85" height="85" viewBox="0 0 85 85" fill="none" xmlns="http://www.w3.org/2000/svg">
<path fill-rule="evenodd" clip-rule="evenodd" d="M42.5002 67.2891C56.1922 67.2891 67.2918 56.1895 67.2918 42.4975C67.2918 28.8054 56.1922 17.7058 42.5002 17.7058C28.8081 17.7058 17.7085 28.8054 17.7085 42.4975C17.7085 56.1895 28.8081 67.2891 42.5002 67.2891Z" stroke="#F94B35" stroke-width="5.3125" stroke-linecap="round" stroke-linejoin="round"/>
<path d="M49.5832 42.4989H35.4165" stroke="#F94B35" stroke-width="5.3125" stroke-linecap="round" stroke-linejoin="round"/>
<path d="M42.4998 35.4155V49.5822" stroke="#F94B35" stroke-width="5.3125" stroke-linecap="round" stroke-linejoin="round"/>
<path d="M42.4998 77.7454C42.599 77.7454 42.6769 77.8233 42.6769 77.9224C42.6769 78.0216 42.599 78.0995 42.4998 78.0995C42.4007 78.0995 42.3228 78.0216 42.3228 77.9224C42.3228 77.8233 42.4007 77.7454 42.4998 77.7454" stroke="#F94B35" stroke-width="5.3125" stroke-linecap="round" stroke-linejoin="round"/>
<path d="M42.4998 6.91064C42.599 6.91064 42.6769 6.98856 42.6769 7.08773C42.6769 7.18689 42.599 7.26481 42.4998 7.26481C42.4007 7.26481 42.3228 7.18689 42.3228 7.08773C42.3228 6.98856 42.4007 6.91064 42.4998 6.91064" stroke="#F94B35" stroke-width="5.3125" stroke-linecap="round" stroke-linejoin="round"/>
<path d="M53.3903 76.0152C53.4859 75.9833 53.5815 76.0329 53.6134 76.1285C53.6453 76.2242 53.5957 76.3198 53.5 76.3517C53.4044 76.3835 53.3088 76.334 53.2769 76.2383C53.245 76.1427 53.2946 76.0435 53.3903 76.0152" stroke="#F94B35" stroke-width="5.3125" stroke-linecap="round" stroke-linejoin="round"/>
<path d="M31.4998 8.65453C31.5954 8.62266 31.691 8.67224 31.7229 8.76787C31.7548 8.86349 31.7052 8.95912 31.6096 8.99099C31.5139 9.02287 31.4183 8.96974 31.3864 8.87766C31.3581 8.78203 31.4077 8.68287 31.4998 8.65453" stroke="#F94B35" stroke-width="5.3125" stroke-linecap="round" stroke-linejoin="round"/>
<path d="M63.2117 71.0139C63.2932 70.9572 63.3995 70.9714 63.4597 71.0528C63.5163 71.1343 63.5022 71.2405 63.4207 71.3007C63.3392 71.3574 63.233 71.3432 63.1728 71.2618C63.1161 71.1839 63.1338 71.0741 63.2117 71.0139" stroke="#F94B35" stroke-width="5.3125" stroke-linecap="round" stroke-linejoin="round"/>
<path d="M21.5795 13.7094C21.6609 13.6528 21.7672 13.6669 21.8274 13.7484C21.8841 13.8298 21.8699 13.9361 21.7884 13.9963C21.707 14.053 21.5972 14.0388 21.5405 13.9573C21.4803 13.8759 21.498 13.7696 21.5795 13.7094" stroke="#F94B35" stroke-width="5.3125" stroke-linecap="round" stroke-linejoin="round"/>
<path d="M71.0102 63.2127C71.0669 63.1313 71.1767 63.1136 71.2581 63.1738C71.3396 63.2304 71.3573 63.3402 71.2971 63.4217C71.2404 63.5032 71.1306 63.5209 71.0492 63.4607C70.9677 63.404 70.95 63.2942 71.0102 63.2127" stroke="#F94B35" stroke-width="5.3125" stroke-linecap="round" stroke-linejoin="round"/>
<path d="M13.7026 21.5802C13.7592 21.4987 13.869 21.481 13.9505 21.5412C14.0319 21.6014 14.0496 21.7112 13.9894 21.7891C13.9328 21.8706 13.823 21.8883 13.7415 21.8281C13.6601 21.7679 13.6459 21.6616 13.7026 21.5802" stroke="#F94B35" stroke-width="5.3125" stroke-linecap="round" stroke-linejoin="round"/>
<path d="M76.0147 53.3927C76.0466 53.2971 76.1422 53.2475 76.2378 53.2794C76.3335 53.3112 76.383 53.4069 76.3512 53.5025C76.3193 53.5981 76.2237 53.6477 76.128 53.6158C76.0324 53.5875 75.9828 53.4883 76.0147 53.3927" stroke="#F94B35" stroke-width="5.3125" stroke-linecap="round" stroke-linejoin="round"/>
<path d="M8.64875 31.5077C8.68062 31.4121 8.77625 31.3625 8.87187 31.3944C8.9675 31.4262 9.01708 31.5219 8.98521 31.6175C8.95333 31.7131 8.8577 31.7627 8.76208 31.7308C8.66645 31.6989 8.61687 31.6033 8.64875 31.5077" stroke="#F94B35" stroke-width="5.3125" stroke-linecap="round" stroke-linejoin="round"/>
<path d="M77.7397 42.503C77.7397 42.4038 77.8177 42.3259 77.9168 42.3259C78.016 42.3259 78.0939 42.4038 78.0939 42.503C78.0939 42.6022 78.016 42.6801 77.9168 42.6801C77.8177 42.6801 77.7397 42.6022 77.7397 42.503" stroke="#F94B35" stroke-width="5.3125" stroke-linecap="round" stroke-linejoin="round"/>
<path d="M6.90625 42.503C6.90625 42.4038 6.98417 42.3259 7.08333 42.3259C7.1825 42.3259 7.26042 42.4038 7.26042 42.503C7.26042 42.6022 7.1825 42.6801 7.08333 42.6801C6.98417 42.6801 6.90625 42.6022 6.90625 42.503" stroke="#F94B35" stroke-width="5.3125" stroke-linecap="round" stroke-linejoin="round"/>
<path d="M76.0147 31.6175C75.9828 31.5219 76.0324 31.4262 76.128 31.3944C76.2237 31.3625 76.3193 31.4121 76.3512 31.5077C76.383 31.6033 76.3335 31.6989 76.2378 31.7308C76.1422 31.7627 76.0466 31.7131 76.0147 31.6175" stroke="#F94B35" stroke-width="5.3125" stroke-linecap="round" stroke-linejoin="round"/>
<path d="M8.64875 53.5025C8.61687 53.4069 8.66645 53.3112 8.76208 53.2794C8.8577 53.2475 8.95333 53.2971 8.98521 53.3927C9.01708 53.4883 8.9675 53.5839 8.87187 53.6158C8.77625 53.6477 8.68062 53.5981 8.64875 53.5025" stroke="#F94B35" stroke-width="5.3125" stroke-linecap="round" stroke-linejoin="round"/>
<path d="M71.0102 21.7884C70.9535 21.7069 70.9677 21.6007 71.0491 21.5405C71.1306 21.4838 71.2368 21.498 71.2971 21.5794C71.3573 21.6609 71.3396 21.7671 71.2581 21.8273C71.1766 21.8875 71.0668 21.8698 71.0102 21.7884" stroke="#F94B35" stroke-width="5.3125" stroke-linecap="round" stroke-linejoin="round"/>
<path d="M13.7031 63.4209C13.6464 63.3395 13.6606 63.2332 13.742 63.173C13.8235 63.1164 13.9297 63.1305 13.99 63.212C14.0466 63.2934 14.0325 63.3997 13.951 63.4599C13.8695 63.5201 13.7633 63.5024 13.7031 63.4209" stroke="#F94B35" stroke-width="5.3125" stroke-linecap="round" stroke-linejoin="round"/>
<path d="M63.2115 13.9971C63.1301 13.9404 63.1124 13.8306 63.1726 13.7491C63.2292 13.6677 63.339 13.65 63.4205 13.7102C63.5019 13.7669 63.5196 13.8766 63.4594 13.9581C63.4028 14.0396 63.293 14.0537 63.2115 13.9971" stroke="#F94B35" stroke-width="5.3125" stroke-linecap="round" stroke-linejoin="round"/>
<path d="M21.5797 71.3007C21.4982 71.2441 21.4805 71.1343 21.5407 71.0528C21.5974 70.9714 21.7072 70.9537 21.7886 71.0139C21.8701 71.0705 21.8878 71.1803 21.8276 71.2618C21.7674 71.3432 21.6576 71.361 21.5797 71.3007" stroke="#F94B35" stroke-width="5.3125" stroke-linecap="round" stroke-linejoin="round"/>
<path d="M53.3903 8.99166C53.2946 8.95979 53.245 8.86416 53.2769 8.76854C53.3088 8.67291 53.4044 8.62333 53.5 8.6552C53.5957 8.68708 53.6453 8.7827 53.6134 8.87833C53.5815 8.97041 53.4823 9.02 53.3903 8.99166" stroke="#F94B35" stroke-width="5.3125" stroke-linecap="round" stroke-linejoin="round"/>
<path d="M31.4996 76.3525C31.404 76.3206 31.3544 76.225 31.3863 76.1294C31.4182 76.0338 31.5138 75.9842 31.6094 76.016C31.705 76.0479 31.7546 76.1435 31.7228 76.2392C31.6944 76.3313 31.5953 76.3808 31.4996 76.3525" stroke="#F94B35" stroke-width="5.3125" stroke-linecap="round" stroke-linejoin="round"/>
</svg>
