<svg width="22" height="21" viewBox="0 0 22 21" fill="none" xmlns="http://www.w3.org/2000/svg">
<path d="M10.9399 2.99707C15.0838 2.99707 18.4431 6.35633 18.4431 10.5002C18.4431 14.6441 15.0838 18.0033 10.9399 18.0033" stroke="#E3A008" stroke-width="1.25" stroke-linecap="round" stroke-linejoin="round"/>
<path d="M8.37626 17.544C7.55382 17.2462 6.78977 16.8069 6.11865 16.246" stroke="#E3A008" stroke-width="1.25" stroke-linecap="round" stroke-linejoin="round"/>
<path d="M6.11865 4.75446C6.78937 4.19292 7.55352 3.75356 8.37626 3.45642" stroke="#E3A008" stroke-width="1.25" stroke-linecap="round" stroke-linejoin="round"/>
<path d="M3.55664 9.19801C3.70728 8.33573 4.00838 7.50665 4.44618 6.74866" stroke="#E3A008" stroke-width="1.25" stroke-linecap="round" stroke-linejoin="round"/>
<path d="M3.55664 11.8016C3.70719 12.6642 4.00829 13.4936 4.44618 14.2518" stroke="#E3A008" stroke-width="1.25" stroke-linecap="round" stroke-linejoin="round"/>
<path d="M11.275 13.2763L12.6672 10.5002H9.33252L10.7248 7.724" stroke="#E3A008" stroke-width="1.25" stroke-linecap="round" stroke-linejoin="round"/>
<path d="M11.275 13.2763L12.6672 10.5002H9.33252L10.7248 7.724" stroke="#E3A008" stroke-width="1.25" stroke-linecap="round" stroke-linejoin="round"/>
<circle cx="10.9997" cy="10.5002" r="7.50312" stroke="#E3A008" stroke-width="1.25" stroke-linecap="round" stroke-linejoin="round"/>
</svg>
