<svg width="24" height="24" viewBox="0 0 24 24" fill="none" xmlns="http://www.w3.org/2000/svg">
<path fill-rule="evenodd" clip-rule="evenodd" d="M19.842 8.29901L13.842 3.63201C12.759 2.78901 11.242 2.78901 10.158 3.63201L4.158 8.29901C3.427 8.86701 3 9.74101 3 10.667V18C3 19.657 4.343 21 6 21H18C19.657 21 21 19.657 21 18V10.667C21 9.74101 20.573 8.86701 19.842 8.29901Z" stroke="#323232" stroke-width="1.5"/>
<path d="M14.121 11.379C15.293 12.551 15.293 14.45 14.121 15.622C12.949 16.794 11.05 16.794 9.87802 15.622C8.70602 14.45 8.70602 12.551 9.87802 11.379C11.05 10.207 12.95 10.207 14.121 11.379" stroke="#323232" stroke-width="1.5" stroke-linecap="round" stroke-linejoin="round"/>
</svg>
