<svg width="32" height="32" viewBox="0 0 32 32" fill="none" xmlns="http://www.w3.org/2000/svg">
<circle cx="16" cy="16" r="16" fill="#F94B35"/>
<path d="M12.3923 22.8H11.2588C10.5634 22.8 10.0001 21.859 10.0001 20.6972V9.90274C10.0001 8.74097 10.5634 7.79999 11.2588 7.79999H20.7414C21.4368 7.79999 22.0001 8.74097 22.0001 9.90274V20.6972C22.0001 21.859 21.4368 22.8 20.7414 22.8H19.9956" stroke="white" stroke-width="0.9" stroke-linecap="round" stroke-linejoin="round"/>
<path fill-rule="evenodd" clip-rule="evenodd" d="M16.3596 20.4V17.7C16.3596 17.2032 15.9564 16.8 15.4596 16.8V16.8C14.9628 16.8 14.5596 17.2032 14.5596 17.7V19.2V22.2L14.019 21.6594C13.6548 21.2952 13.0644 21.2952 12.7002 21.6594V21.6594C12.3858 21.9738 12.3372 22.4664 12.5838 22.836L14.2032 25.2654C14.4258 25.5996 14.8008 25.8 15.2016 25.8H18.3744C18.9798 25.8 19.4898 25.3494 19.5654 24.7488L19.8906 22.1466C19.9704 21.5064 19.53 20.9172 18.8934 20.8134L16.3596 20.4V20.4Z" stroke="white" stroke-width="0.9" stroke-linecap="round" stroke-linejoin="round"/>
</svg>
