<svg width="32" height="32" viewBox="0 0 32 32" fill="none" xmlns="http://www.w3.org/2000/svg">
<rect width="32" height="32" rx="8" fill="#DEF7EC"/>
<path fill-rule="evenodd" clip-rule="evenodd" d="M22.707 11.293C22.8945 11.4806 22.9998 11.7349 22.9998 12C22.9998 12.2652 22.8945 12.5195 22.707 12.707L14.707 20.707C14.5195 20.8945 14.2652 20.9998 14 20.9998C13.7348 20.9998 13.4805 20.8945 13.293 20.707L9.293 16.707C9.11084 16.5184 9.01005 16.2658 9.01232 16.0036C9.0146 15.7414 9.11977 15.4906 9.30518 15.3052C9.49059 15.1198 9.7414 15.0146 10.0036 15.0124C10.2658 15.0101 10.5184 15.1109 10.707 15.293L14 18.586L21.293 11.293C21.4805 11.1056 21.7348 11.0002 22 11.0002C22.2652 11.0002 22.5195 11.1056 22.707 11.293Z" fill="black"/>
</svg>
